<?xml version="1.0" encoding="UTF-8"?>
<svg width="100px" height="100px" viewBox="0 0 100 100" version="1.1" xmlns="http://www.w3.org/2000/svg" xmlns:xlink="http://www.w3.org/1999/xlink">
    <!-- Generator: Sketch 45.1 (43504) - http://www.bohemiancoding.com/sketch -->
    <title>Group@3x</title>
    <desc>Created with Sketch.</desc>
    <defs></defs>
    <g id="Symbols" stroke="none" stroke-width="1" fill="none" fill-rule="evenodd">
        <g id="Loading-Indicator-/-Xlarge">
            <g id="Group">
                <path d="M100,49.9998 C100,77.6138 77.614,99.9998 50,99.9998 C22.386,99.9998 0,77.6138 0,49.9998 C0,22.3858 22.386,-0.0002 50,-0.0002 C77.614,-0.0002 100,22.3858 100,49.9998" id="Fill-20" fill="#DCE4EE"></path>
                <polygon id="Fill-23" fill="#122E51" points="50 9.2312 52.599 14.4982 58.412 15.3422 54.206 19.4422 55.199 25.2312 50 22.4982 44.801 25.2312 45.794 19.4422 41.588 15.3422 47.401 14.4982"></polygon>
                <polygon id="Fill-25" fill="#122E51" opacity="0.879999995" points="72.522 18.5603 75.121 23.8273 80.934 24.6713 76.728 28.7713 77.721 34.5603 72.522 31.8273 67.323 34.5603 68.316 28.7713 64.11 24.6713 69.922 23.8273"></polygon>
                <polygon id="Fill-27" fill="#122E51" opacity="0.75999999" points="81.8506 41.0818 84.4506 46.3488 90.2626 47.1928 86.0566 51.2928 87.0496 57.0818 81.8506 54.3488 76.6526 57.0818 77.6446 51.2928 73.4386 47.1928 79.2516 46.3488"></polygon>
                <polygon id="Fill-29" fill="#122E51" opacity="0.639999986" points="72.522 63.6033 75.121 68.8713 80.934 69.7153 76.728 73.8153 77.721 79.6033 72.522 76.8713 67.323 79.6033 68.316 73.8153 64.11 69.7153 69.922 68.8713"></polygon>
                <polygon id="Fill-31" fill="#122E51" opacity="0.519999981" points="50 72.9324 52.599 78.2004 58.412 79.0434 54.206 83.1434 55.199 88.9324 50 86.2004 44.801 88.9324 45.794 83.1434 41.588 79.0434 47.401 78.2004"></polygon>
                <polygon id="Fill-33" fill="#122E51" opacity="0.399999976" points="27.478 63.6033 30.078 68.8713 35.89 69.7153 31.684 73.8153 32.677 79.6033 27.478 76.8713 22.279 79.6033 23.272 73.8153 19.066 69.7153 24.879 68.8713"></polygon>
                <polygon id="Fill-35" fill="#122E51" opacity="0.280000001" points="18.1494 41.0818 20.7484 46.3488 26.5614 47.1928 22.3554 51.2928 23.3474 57.0818 18.1494 54.3488 12.9504 57.0818 13.9434 51.2928 9.7374 47.1928 15.5494 46.3488"></polygon>
                <polygon id="Fill-37" fill="#122E51" opacity="0.160000011" points="27.478 18.5603 30.078 23.8273 35.89 24.6713 31.684 28.7713 32.677 34.5603 27.478 31.8273 22.279 34.5603 23.272 28.7713 19.066 24.6713 24.879 23.8273"></polygon>
            </g>
        </g>
    </g>
</svg>